# xmcd
#
# Track frame offsets:
#	150
#	15271
#	34271
#	48755
#	62094
#	83009
#	98521
#	109578
#	126776
#	140579
#
# Disc length: 2155 seconds
#
# Revision: 1
# Processed by: cddbd v1.4PL0 Copyright (c) Steve Scherf et al.
# Submitted via: audiograbber 1.82.01
#
DISCID=7208690a
DTITLE=Johnny Vibrato - On The Eighth Day
DYEAR=1900
DGENRE=Blues
TTITLE0=Guitar King
TTITLE1=Vibrato
TTITLE2=Fingers To The Bone
TTITLE3=Biscuits and Honey
TTITLE4=Rest Your Laurels
TTITLE5=The Prowl
TTITLE6=Headline News
TTITLE7=Heart and Soul
TTITLE8=Didn't Expect That
TTITLE9=Queen Anne's Lace
EXTD=
EXTT0=
EXTT1=
EXTT2=
EXTT3=
EXTT4=
EXTT5=
EXTT6=
EXTT7=
EXTT8=
EXTT9=
PLAYORDER=
